<svg xmlns="http://www.w3.org/2000/svg" xmlns:xlink="http://www.w3.org/1999/xlink" width="150" zoomAndPan="magnify" viewBox="0 0 112.5 56.249996" height="75" preserveAspectRatio="xMidYMid meet" version="1.0"><defs><g/></defs><g fill="#917cd1" fill-opacity="1"><g transform="translate(25.967459, 31.244195)"><g><path d="M 3.140625 -10.46875 L 3.140625 0 L 0.765625 0 L 0.765625 -10.46875 Z M 3.140625 -10.46875 "/></g></g></g><g fill="#917cd1" fill-opacity="1"><g transform="translate(29.241026, 31.244195)"><g><path d="M 0.765625 0 L 0.765625 -6.515625 L 3 -6.515625 L 3 -5.828125 L 3.03125 -5.828125 C 3.613281 -6.410156 4.234375 -6.703125 4.890625 -6.703125 C 5.210938 -6.703125 5.53125 -6.65625 5.84375 -6.5625 C 6.164062 -6.476562 6.472656 -6.347656 6.765625 -6.171875 C 7.054688 -5.992188 7.289062 -5.742188 7.46875 -5.421875 C 7.65625 -5.097656 7.75 -4.71875 7.75 -4.28125 L 7.75 0 L 5.5 0 L 5.5 -3.671875 C 5.5 -4.015625 5.390625 -4.3125 5.171875 -4.5625 C 4.960938 -4.820312 4.6875 -4.953125 4.34375 -4.953125 C 4 -4.953125 3.6875 -4.816406 3.40625 -4.546875 C 3.132812 -4.285156 3 -3.992188 3 -3.671875 L 3 0 Z M 0.765625 0 "/></g></g></g><g fill="#917cd1" fill-opacity="1"><g transform="translate(36.993545, 31.244195)"><g><path d="M 0.765625 0 L 0.765625 -6.515625 L 3 -6.515625 L 3 -5.828125 L 3.03125 -5.828125 C 3.613281 -6.410156 4.234375 -6.703125 4.890625 -6.703125 C 5.210938 -6.703125 5.53125 -6.65625 5.84375 -6.5625 C 6.164062 -6.476562 6.472656 -6.347656 6.765625 -6.171875 C 7.054688 -5.992188 7.289062 -5.742188 7.46875 -5.421875 C 7.65625 -5.097656 7.75 -4.71875 7.75 -4.28125 L 7.75 0 L 5.5 0 L 5.5 -3.671875 C 5.5 -4.015625 5.390625 -4.3125 5.171875 -4.5625 C 4.960938 -4.820312 4.6875 -4.953125 4.34375 -4.953125 C 4 -4.953125 3.6875 -4.816406 3.40625 -4.546875 C 3.132812 -4.285156 3 -3.992188 3 -3.671875 L 3 0 Z M 0.765625 0 "/></g></g></g><g fill="#917cd1" fill-opacity="1"><g transform="translate(44.746063, 31.244195)"><g><path d="M 1.375 -0.765625 C 0.65625 -1.410156 0.296875 -2.234375 0.296875 -3.234375 C 0.296875 -4.242188 0.671875 -5.070312 1.421875 -5.71875 C 2.171875 -6.375 3.101562 -6.703125 4.21875 -6.703125 C 5.300781 -6.703125 6.21875 -6.375 6.96875 -5.71875 C 7.71875 -5.070312 8.09375 -4.25 8.09375 -3.25 C 8.09375 -2.25 7.726562 -1.425781 7 -0.78125 C 6.269531 -0.132812 5.34375 0.1875 4.21875 0.1875 C 3.050781 0.1875 2.101562 -0.128906 1.375 -0.765625 Z M 3.109375 -4.34375 C 2.816406 -4.0625 2.671875 -3.695312 2.671875 -3.25 C 2.671875 -2.800781 2.8125 -2.429688 3.09375 -2.140625 C 3.375 -1.859375 3.742188 -1.71875 4.203125 -1.71875 C 4.640625 -1.71875 5 -1.863281 5.28125 -2.15625 C 5.5625 -2.445312 5.703125 -2.8125 5.703125 -3.25 C 5.703125 -3.695312 5.554688 -4.0625 5.265625 -4.34375 C 4.972656 -4.632812 4.617188 -4.78125 4.203125 -4.78125 C 3.765625 -4.78125 3.398438 -4.632812 3.109375 -4.34375 Z M 3.109375 -4.34375 "/></g></g></g><g fill="#917cd1" fill-opacity="1"><g transform="translate(52.498582, 31.244195)"><g><path d="M 2.40625 -6.515625 L 4 -2.96875 L 5.578125 -6.515625 L 8.25 -6.515625 L 4.75 0 L 3.234375 0 L -0.25 -6.515625 Z M 2.40625 -6.515625 "/></g></g></g><g fill="#917cd1" fill-opacity="1"><g transform="translate(59.857766, 31.244195)"><g><path d="M 6.078125 -10.46875 L 10.296875 0 L 7.734375 0 L 6.96875 -2.09375 L 2.984375 -2.09375 L 2.203125 0 L -0.359375 0 L 3.875 -10.46875 Z M 6.15625 -4.1875 L 4.984375 -7.234375 L 4.953125 -7.234375 L 3.796875 -4.1875 Z M 6.15625 -4.1875 "/></g></g></g><g fill="#917cd1" fill-opacity="1"><g transform="translate(69.170937, 31.244195)"><g><path d="M 7.453125 -5.703125 C 8.066406 -5.035156 8.375 -4.21875 8.375 -3.25 C 8.375 -2.289062 8.066406 -1.476562 7.453125 -0.8125 C 6.847656 -0.144531 6.078125 0.1875 5.140625 0.1875 C 4.273438 0.1875 3.5625 -0.0820312 3 -0.625 L 3 3.296875 L 0.765625 3.296875 L 0.765625 -6.515625 L 2.984375 -6.515625 L 2.984375 -5.765625 L 3 -5.765625 C 3.5625 -6.390625 4.273438 -6.703125 5.140625 -6.703125 C 6.078125 -6.703125 6.847656 -6.367188 7.453125 -5.703125 Z M 5.546875 -2.15625 C 5.835938 -2.445312 5.984375 -2.816406 5.984375 -3.265625 C 5.984375 -3.710938 5.84375 -4.078125 5.5625 -4.359375 C 5.289062 -4.640625 4.925781 -4.78125 4.46875 -4.78125 C 4.03125 -4.78125 3.664062 -4.632812 3.375 -4.34375 C 3.09375 -4.0625 2.953125 -3.703125 2.953125 -3.265625 C 2.953125 -2.816406 3.097656 -2.445312 3.390625 -2.15625 C 3.679688 -1.863281 4.039062 -1.71875 4.46875 -1.71875 C 4.894531 -1.71875 5.253906 -1.863281 5.546875 -2.15625 Z M 5.546875 -2.15625 "/></g></g></g><g fill="#917cd1" fill-opacity="1"><g transform="translate(77.202596, 31.244195)"><g><path d="M 7.453125 -5.703125 C 8.066406 -5.035156 8.375 -4.21875 8.375 -3.25 C 8.375 -2.289062 8.066406 -1.476562 7.453125 -0.8125 C 6.847656 -0.144531 6.078125 0.1875 5.140625 0.1875 C 4.273438 0.1875 3.5625 -0.0820312 3 -0.625 L 3 3.296875 L 0.765625 3.296875 L 0.765625 -6.515625 L 2.984375 -6.515625 L 2.984375 -5.765625 L 3 -5.765625 C 3.5625 -6.390625 4.273438 -6.703125 5.140625 -6.703125 C 6.078125 -6.703125 6.847656 -6.367188 7.453125 -5.703125 Z M 5.546875 -2.15625 C 5.835938 -2.445312 5.984375 -2.816406 5.984375 -3.265625 C 5.984375 -3.710938 5.84375 -4.078125 5.5625 -4.359375 C 5.289062 -4.640625 4.925781 -4.78125 4.46875 -4.78125 C 4.03125 -4.78125 3.664062 -4.632812 3.375 -4.34375 C 3.09375 -4.0625 2.953125 -3.703125 2.953125 -3.265625 C 2.953125 -2.816406 3.097656 -2.445312 3.390625 -2.15625 C 3.679688 -1.863281 4.039062 -1.71875 4.46875 -1.71875 C 4.894531 -1.71875 5.253906 -1.863281 5.546875 -2.15625 Z M 5.546875 -2.15625 "/></g></g></g></svg>